<svg width="76" height="81" viewBox="0 0 76 81" fill="none" xmlns="http://www.w3.org/2000/svg">
<path d="M56.6954 13.0659C60.2097 15.476 62.2963 17.7198 61.5319 19.2433C60.881 20.4515 55.1621 18.5312 48.8682 14.9014C42.4861 11.2913 37.7795 7.30893 38.4305 6.10071C39.4637 4.13074 45.1153 6.16272 51.4974 9.77287C52.5681 10.4052 53.6177 10.9456 54.6002 11.5975L56.6954 13.0659Z" stroke="#D958FA" stroke-width="2.5" stroke-miterlimit="10" stroke-linecap="round" stroke-linejoin="round"/>
<path d="M61.6695 18.9221L59.2207 23.6224C58.5697 24.8303 52.8499 22.9109 46.5549 19.2827C40.1718 15.6741 35.4643 11.6933 36.1153 10.4854L38.5641 5.78512" stroke="#D958FA" stroke-width="2.5" stroke-miterlimit="10" stroke-linecap="round" stroke-linejoin="round"/>
<path d="M56.7148 31.7239C55.56 32.7541 49.6022 30.5965 42.914 26.8607C36.1165 23.0524 31.1708 18.8327 31.3851 17.3346" stroke="#D958FA" stroke-width="2.5" stroke-miterlimit="10" stroke-linecap="round" stroke-linejoin="round"/>
<path d="M55.0563 27.243C52.6871 26.6184 49.0953 25.1115 45.247 22.8908C41.2012 20.6182 37.882 18.2786 36.1632 16.4472L28.6248 17.9483C26.4831 18.7187 24.619 20.2946 23.5196 22.3735L9.05981 50.691C10.1762 57.575 34.6824 72.2196 42.8252 69.715L57.285 41.3976C58.3844 39.3187 58.652 36.8481 58.0167 34.484L55.0563 27.243Z" stroke="#D958FA" stroke-width="2.5" stroke-miterlimit="10" stroke-linecap="round" stroke-linejoin="round"/>
<path d="M35.9492 16.5625L37.6793 13.1875" stroke="#D958FA" stroke-width="2.5" stroke-miterlimit="10" stroke-linecap="round" stroke-linejoin="round"/>
<path d="M54.8299 27.1556L56.6064 23.578" stroke="#D958FA" stroke-width="2.5" stroke-miterlimit="10" stroke-linecap="round" stroke-linejoin="round"/>
<path d="M19.8004 29.7397C19.8004 29.7397 26.5993 28.6912 33.5152 37.4705C40.4312 46.2499 48.0033 48.9882 55.1118 45.6479" stroke="#D958FA" stroke-width="2.5" stroke-miterlimit="10" stroke-linecap="round" stroke-linejoin="round"/>
<path d="M21.3715 37.7256L24.7226 37.4606" stroke="#D958FA" stroke-width="2.5" stroke-miterlimit="10" stroke-linecap="round" stroke-linejoin="round"/>
<path d="M29.7337 41.7559L30.1579 45.2071" stroke="#D958FA" stroke-width="2.5" stroke-miterlimit="10" stroke-linecap="round" stroke-linejoin="round"/>
<path d="M38.5224 63.729L40.9612 61.4359" stroke="#D958FA" stroke-width="2.5" stroke-miterlimit="10" stroke-linecap="round" stroke-linejoin="round"/>
<path d="M30.1083 58.967L30.6232 62.3979" stroke="#D958FA" stroke-width="2.5" stroke-miterlimit="10" stroke-linecap="round" stroke-linejoin="round"/>
<path d="M35.9792 49.4104L39.3303 49.1454" stroke="#D958FA" stroke-width="2.5" stroke-miterlimit="10" stroke-linecap="round" stroke-linejoin="round"/>
<path d="M16.7465 51.0339L15.182 47.9222" stroke="#D958FA" stroke-width="2.5" stroke-miterlimit="10" stroke-linecap="round" stroke-linejoin="round"/>
<path d="M45.778 54.1566L46.588 50.8037" stroke="#D958FA" stroke-width="2.5" stroke-miterlimit="10" stroke-linecap="round" stroke-linejoin="round"/>
<path d="M20.385 56.2144L23.6919 56.1537" stroke="#D958FA" stroke-width="2.5" stroke-miterlimit="10" stroke-linecap="round" stroke-linejoin="round"/>
<path d="M21.6488 47.5736L22.4796 44.3118" stroke="#D958FA" stroke-width="2.5" stroke-miterlimit="10" stroke-linecap="round" stroke-linejoin="round"/>
<path d="M27.59 49.9294L29.6384 52.7428" stroke="#D958FA" stroke-width="2.5" stroke-miterlimit="10" stroke-linecap="round" stroke-linejoin="round"/>
<path d="M36.5371 56.5037L39.4923 54.8575" stroke="#D958FA" stroke-width="2.5" stroke-miterlimit="10" stroke-linecap="round" stroke-linejoin="round"/>
<path d="M60.7923 4.82849L53.9575 13.4179" stroke="#D958FA" stroke-width="2.5" stroke-miterlimit="10" stroke-linecap="round" stroke-linejoin="round"/>
<path d="M58.0458 39.2819L61.5679 41.2861C65.0899 43.2903 66.4955 47.7935 64.6316 51.3924L56.0511 68.1606C54.1872 71.7594 49.86 73.1164 46.338 71.1122L43.0344 69.2517" stroke="#D958FA" stroke-width="2.5" stroke-miterlimit="10" stroke-linecap="round" stroke-linejoin="round"/>
<path d="M45.3291 64.7024L47.3634 65.884C49.1581 66.8304 51.3429 66.2436 52.2202 64.4083L59.4535 50.2562C60.3308 48.4209 59.7163 46.1496 57.9216 45.2032L55.8872 44.0216" stroke="#D958FA" stroke-width="2.5" stroke-miterlimit="10" stroke-linecap="round" stroke-linejoin="round"/>
</svg>
