<svg width="86" height="81" viewBox="0 0 86 81" fill="none" xmlns="http://www.w3.org/2000/svg">
<path d="M23.5699 16.6375L28.7753 9.08349C29.8081 7.67546 31.7532 7.32006 33.2674 8.42807L41.387 14.4361C42.8028 15.5518 43.2272 17.5615 42.2058 19.0708L22.7537 47.3421C21.7209 48.7501 19.7757 49.1055 18.2616 47.9975L10.1419 41.9895C8.62777 40.8815 8.30172 38.864 9.32312 37.3548L15.0278 28.9448" stroke="#D958FA" stroke-width="2.5" stroke-miterlimit="10" stroke-linecap="round" stroke-linejoin="round"/>
<path d="M10.3972 36.0398L4.76871 31.8814C3.35304 30.7659 2.9286 28.7563 3.94992 27.2471L17.6206 7.59693C18.6533 6.18897 20.5983 5.83353 22.1124 6.9414L27.7409 11.0997" stroke="#D958FA" stroke-width="2.5" stroke-miterlimit="10" stroke-linecap="round" stroke-linejoin="round"/>
<path d="M71.2182 50.8238L76.4235 43.2699C77.4563 41.8619 77.0204 39.7509 75.6047 38.6353L67.4852 32.6274C66.0695 31.5118 64.0259 31.8749 62.9932 33.2829L43.5415 61.5537C42.5088 62.9617 42.9446 65.0727 44.3603 66.1883L52.4798 72.1962C53.8956 73.3118 55.9391 72.9487 56.9718 71.5407L62.6764 63.1309" stroke="#D958FA" stroke-width="2.5" stroke-miterlimit="10" stroke-linecap="round" stroke-linejoin="round"/>
<path d="M58.1183 69.6157L63.6477 73.7806C65.0632 74.8959 67.1063 74.5327 68.1388 73.1249L81.7955 53.3758C82.8281 51.968 82.3922 49.8575 80.9768 48.7423L75.4474 44.5774" stroke="#D958FA" stroke-width="2.5" stroke-miterlimit="10" stroke-linecap="round" stroke-linejoin="round"/>
<path d="M35.7151 28.0995L56.4674 43.5811" stroke="#D958FA" stroke-width="2.5" stroke-miterlimit="10" stroke-linecap="round" stroke-linejoin="round"/>
<path d="M30.4512 35.5265L51.2035 51.0081" stroke="#D958FA" stroke-width="2.5" stroke-miterlimit="10" stroke-linecap="round" stroke-linejoin="round"/>
</svg>
