<svg width="70" height="74" viewBox="0 0 70 74" fill="none" xmlns="http://www.w3.org/2000/svg">
<path d="M47.5481 7.14015C52.1892 2.40843 57.4516 19.8431 63.0591 26.0191C68.6665 32.1952 59.8044 35.4881 52.5549 39.8505C45.398 44.2294 44.5829 39.0088 39.9643 49.5999C35.4564 60.1132 15.902 66.7618 7.20428 64.7168C-1.49345 62.6717 4.92278 53.1832 4.92278 53.1832C4.92278 53.1832 27.033 33.2321 26.7398 9.85586C26.718 8.97365 28.8688 5.7479 29.5751 11.5345C30.2814 17.3211 33.9206 21.2906 41.3657 14.9139C45.1435 11.6867 42.8889 11.9662 47.5481 7.14015Z" stroke="#D958FA" stroke-width="2.5" stroke-miterlimit="10" stroke-linecap="round" stroke-linejoin="round"/>
<path d="M2.72809 59.0002C2.72809 59.0002 16.8355 61.3405 29.2359 48.0839C41.7288 34.8438 46.8482 28.6093 62.5247 25.2529" stroke="#D958FA" stroke-width="2.5" stroke-miterlimit="10" stroke-linecap="round" stroke-linejoin="round"/>
<path d="M23.5264 26.7197C23.5264 26.7197 25.4567 23.6091 28.357 21.9588C31.0357 20.4662 35.2224 20.6301 38.6157 21.4414C42.009 22.2526 46.7562 19.4536 48.8019 17.2534C51.216 14.6257 55.6966 14.2496 58.0683 18.4347" stroke="#D958FA" stroke-width="2.5" stroke-miterlimit="10" stroke-linecap="round" stroke-linejoin="round"/>
<path d="M23.7689 25.8557L32.1746 27.7716" stroke="#D958FA" stroke-width="2.5" stroke-miterlimit="10" stroke-linecap="round" stroke-linejoin="round"/>
<path d="M21.3509 30.8821L28.9945 32.7482" stroke="#D958FA" stroke-width="2.5" stroke-miterlimit="10" stroke-linecap="round" stroke-linejoin="round"/>
<path d="M18.7077 35.579L26.4076 37.6472" stroke="#D958FA" stroke-width="2.5" stroke-miterlimit="10" stroke-linecap="round" stroke-linejoin="round"/>
<path d="M15.3251 40.612L23.0446 43.0709" stroke="#D958FA" stroke-width="2.5" stroke-miterlimit="10" stroke-linecap="round" stroke-linejoin="round"/>
</svg>
