<svg width="71" height="74" viewBox="0 0 71 74" fill="none" xmlns="http://www.w3.org/2000/svg">
<path d="M52.6366 45.1208C52.9571 50.7169 51.233 56.489 47.4026 61.357C38.8778 72.1541 23.0944 74.5977 12.1667 66.7572C1.23902 58.9168 -0.757021 43.7962 7.76773 32.9991C11.5982 28.131 16.9611 24.907 22.6408 23.6289C23.0237 19.5509 24.5366 15.4742 27.3101 11.8811C34.971 2.14496 49.2267 -0.068484 59.0814 6.97631C68.9362 14.0211 70.7457 27.678 63.0848 37.4141C60.317 41.1054 56.6639 43.689 52.6366 45.1208Z" stroke="#D958FA" stroke-width="2.5" stroke-miterlimit="10" stroke-linecap="round" stroke-linejoin="round"/>
<path d="M50.6913 37.9209C53.7275 37.1667 55.8679 35.1095 58.1621 32.1519C63.5226 25.3815 62.7611 17.462 54.9452 11.8254C47.1348 6.28688 39.281 7.15983 33.1539 14.8834C30.7576 17.8498 29.6499 20.0153 29.824 23.0563C34.3577 23.3563 38.7544 24.851 42.6057 27.5756C46.3548 30.309 49.0254 33.9238 50.6913 37.9209Z" stroke="#D958FA" stroke-width="2.5" stroke-miterlimit="10" stroke-linecap="round" stroke-linejoin="round"/>
<path d="M15.2054 51.9425L14.2361 51.2744L27.1024 35.1392L25.5968 34.1428L26.3777 33.1853L28.8525 34.8499L15.2054 51.9425Z" fill="black" stroke="#D958FA" stroke-width="2.5" stroke-miterlimit="10" stroke-linecap="round" stroke-linejoin="round"/>
<path d="M28.7899 43.1911C29.3725 42.4526 30.0679 41.8944 30.7683 41.432C31.5716 40.9584 32.282 40.6877 33.1053 40.5974C33.9235 40.4113 34.7518 40.4168 35.5901 40.614C36.4283 40.8112 37.1687 41.1155 37.8111 41.5269C38.4585 42.0342 39.003 42.5527 39.4545 43.2742C39.9011 43.8999 40.1469 44.6439 40.1868 45.4106C40.3296 46.1659 40.2666 46.9438 39.9978 47.7443C39.729 48.5449 39.3573 49.3567 38.7698 49.9994L33.1355 57.0747C32.5529 57.8132 31.8575 58.3714 31.1571 58.8337C30.3538 59.3073 29.6434 59.578 28.8201 59.6683C28.0019 59.8544 27.1736 59.8489 26.3353 59.6517C25.4971 59.4545 24.7567 59.1502 24.1143 58.7388C23.4669 58.2316 22.9224 57.713 22.4709 56.9915C22.0243 56.3659 21.7785 55.6218 21.7386 54.8552C21.5958 54.0998 21.6588 53.3219 21.9276 52.5214C22.1964 51.7209 22.5731 51.0049 23.1556 50.2664L28.7899 43.1911ZM37.9066 49.323C38.3912 48.6916 38.67 48.0828 38.9488 47.4739C39.1197 46.7805 39.1926 46.1943 39.1577 45.5235C39.1277 44.9485 38.887 44.3002 38.5483 43.7591C38.2096 43.218 37.773 42.784 37.2335 42.3613C36.694 41.9386 36.0616 41.7188 35.4342 41.5949C34.8067 41.471 34.0814 41.4541 33.4689 41.6177C32.8514 41.6854 32.141 41.9561 31.5386 42.3113C30.9361 42.6665 30.3386 43.1176 29.854 43.749L24.2196 50.8243C23.735 51.4557 23.3533 52.0759 23.1775 52.6734C23.0066 53.3668 22.9336 53.9531 22.9685 54.6239C22.9985 55.1989 23.2392 55.8471 23.5779 56.3882C23.9166 56.9293 24.3532 57.3633 24.8927 57.7861C25.4322 58.2088 26.0646 58.4285 26.6921 58.5525C27.3195 58.6764 28.0449 58.6932 28.6573 58.5296C29.2748 58.4619 29.9852 58.1912 30.5877 57.836C31.1901 57.4808 31.7876 57.0297 32.2722 56.3983L37.9066 49.323Z" fill="black" stroke="#D958FA" stroke-width="2.5" stroke-miterlimit="10" stroke-linecap="round" stroke-linejoin="round"/>
</svg>
