<svg width="96" height="89" viewBox="0 0 96 89" fill="none" xmlns="http://www.w3.org/2000/svg">
<path d="M14.313 65.9832L40.8927 81.7893L68.0339 36.7577C70.457 32.7939 69.1615 27.592 65.0623 25.2043L53.0855 18.0436C49.0827 15.6248 43.8456 16.8919 41.4542 20.9515L14.313 65.9832Z" stroke="#D958FA" stroke-width="2.5" stroke-miterlimit="10" stroke-linecap="round" stroke-linejoin="round"/>
<path d="M50.3265 14.7623C50.8116 13.9706 51.9051 13.7242 52.7065 14.2074L68.158 23.42C68.9594 23.9031 69.2121 24.9865 68.727 25.7782C68.2418 26.5699 67.1483 26.8162 66.3469 26.3331L50.8955 17.1205C50.0941 16.6374 49.8413 15.554 50.3265 14.7623Z" stroke="#D958FA" stroke-width="2.5" stroke-miterlimit="10" stroke-linecap="round" stroke-linejoin="round"/>
<path d="M49.7012 12.3164L71.1064 25.1583L72.1465 23.4487C74.5837 19.4918 73.2978 14.2753 69.1959 11.8624L62.4028 7.75623C58.3976 5.3126 53.1469 6.55389 50.7412 10.6069L49.7012 12.3164Z" stroke="#D958FA" stroke-width="2.5" stroke-miterlimit="10" stroke-linecap="round" stroke-linejoin="round"/>
<path d="M69.7215 20.2175C70.3363 18.1484 69.4409 15.7982 67.4142 14.6244" stroke="#D958FA" stroke-width="2.5" stroke-miterlimit="10" stroke-linecap="round" stroke-linejoin="round"/>
<path d="M64.271 6.0583C65.1759 4.60052 67.0403 4.10497 68.5139 5.00733C69.9875 5.90968 70.494 7.75997 69.5891 9.21776L68.2958 11.4367L62.9777 8.27729L64.271 6.0583Z" stroke="#D958FA" stroke-width="2.5" stroke-miterlimit="10" stroke-linecap="round" stroke-linejoin="round"/>
<path d="M72.6742 15.7025L78.1179 18.9287C81.032 20.6388 81.948 24.3729 80.2355 27.2592C78.5229 30.1454 74.764 31.0414 71.85 29.3313L65.1896 25.3315" stroke="#D958FA" stroke-width="2.5" stroke-miterlimit="10" stroke-linecap="round" stroke-linejoin="round"/>
<path d="M66.5745 38.8252L39.9622 23.0433" stroke="#D958FA" stroke-width="2.5" stroke-miterlimit="10" stroke-linecap="round" stroke-linejoin="round"/>
<path d="M47.4821 71.1347L20.9654 55.3223" stroke="#D958FA" stroke-width="2.5" stroke-miterlimit="10" stroke-linecap="round" stroke-linejoin="round"/>
<path d="M57.5945 43.4347C55.4466 42.095 54.1429 44.309 51.9949 42.9694C49.847 41.6298 51.1822 39.5119 48.9374 38.2027C46.7895 36.8631 45.4858 39.0771 43.3378 37.7375C41.1898 36.3979 42.5251 34.28 40.2803 32.9708" stroke="#D958FA" stroke-width="2.5" stroke-miterlimit="10" stroke-linecap="round" stroke-linejoin="round"/>
<path d="M54.3707 48.957C52.2228 47.6173 50.9191 49.8314 48.7711 48.4917C46.6232 47.1521 47.9584 45.0342 45.7136 43.7251C43.5656 42.3854 42.2619 44.5995 40.114 43.2598C37.966 41.9202 39.3012 39.8023 37.0565 38.4932" stroke="#D958FA" stroke-width="2.5" stroke-miterlimit="10" stroke-linecap="round" stroke-linejoin="round"/>
<path d="M51.0513 54.5116C48.9033 53.1719 47.5996 55.3859 45.4517 54.0463C43.3037 52.7067 44.639 50.5888 42.3942 49.2796C40.2462 47.94 38.9425 50.154 36.7946 48.8144C34.6466 47.4747 35.9818 45.3569 33.737 44.0477" stroke="#D958FA" stroke-width="2.5" stroke-miterlimit="10" stroke-linecap="round" stroke-linejoin="round"/>
</svg>
